<svg width="182" height="181" viewBox="0 0 182 181" fill="none" xmlns="http://www.w3.org/2000/svg">
<g filter="url(#filter0_i_2180_606)">
<circle cx="91" cy="90.2778" r="90.2778" fill="#675893"/>
</g>
<path d="M112.638 46.4316C97.601 46.4316 85.4106 58.6608 85.4106 73.7451C85.4106 88.8294 97.601 101.059 112.638 101.059C127.674 101.059 139.864 88.8294 139.864 73.7451C139.864 58.6608 127.674 46.4316 112.638 46.4316ZM112.638 98.7824C98.8752 98.7824 87.6796 87.5511 87.6796 73.7451C87.6796 59.939 98.8752 48.7078 112.638 48.7078C126.4 48.7078 137.596 59.939 137.596 73.7451C137.596 87.5511 126.4 98.7824 112.638 98.7824Z" fill="white"/>
<path d="M102.201 71.5517C104.707 71.5517 106.738 69.5136 106.738 66.9995C106.738 64.4854 104.707 62.4473 102.201 62.4473C99.6944 62.4473 97.6627 64.4854 97.6627 66.9995C97.6627 69.5136 99.6944 71.5517 102.201 71.5517Z" fill="white"/>
<path d="M123.074 71.5517C125.58 71.5517 127.612 69.5136 127.612 66.9995C127.612 64.4854 125.58 62.4473 123.074 62.4473C120.568 62.4473 118.536 64.4854 118.536 66.9995C118.536 69.5136 120.568 71.5517 123.074 71.5517Z" fill="white"/>
<path d="M112.637 77.9082C106.871 77.9082 102.369 81.1895 100.139 84.8731C99.5421 85.8582 100.336 86.9253 101.217 86.3098C108.577 81.1603 116.743 81.1904 124.059 86.3098C124.94 86.9253 125.734 85.8582 125.137 84.8731C122.905 81.1895 118.404 77.9082 112.637 77.9082Z" fill="white"/>
<path d="M70.1258 81.9395C55.0893 81.9395 42.8989 94.1686 42.8989 109.253C42.8989 124.337 55.0893 136.566 70.1258 136.566C85.1623 136.566 97.3527 124.337 97.3527 109.253C97.3527 94.1686 85.1623 81.9395 70.1258 81.9395ZM70.1258 134.29C56.3635 134.29 45.1678 123.059 45.1678 109.253C45.1678 95.4469 56.3635 84.2156 70.1258 84.2156C83.8881 84.2156 95.0838 95.4469 95.0838 109.253C95.0838 123.059 83.8881 134.29 70.1258 134.29Z" fill="white"/>
<path d="M59.6888 107.062C62.195 107.062 64.2267 105.023 64.2267 102.509C64.2267 99.9951 62.195 97.957 59.6888 97.957C57.1827 97.957 55.151 99.9951 55.151 102.509C55.151 105.023 57.1827 107.062 59.6888 107.062Z" fill="white"/>
<path d="M80.5626 107.062C83.0687 107.062 85.1004 105.023 85.1004 102.509C85.1004 99.9951 83.0687 97.957 80.5626 97.957C78.0564 97.957 76.0247 99.9951 76.0247 102.509C76.0247 105.023 78.0564 107.062 80.5626 107.062Z" fill="white"/>
<path d="M69.9379 124.446C75.7044 124.398 80.1785 121.079 82.3777 117.377C82.9667 116.387 82.1638 115.326 81.2877 115.949C73.9712 121.16 65.805 121.198 58.4469 116.14C57.5606 115.532 56.7754 116.606 57.3807 117.586C59.6429 121.251 64.1715 124.494 69.9379 124.446Z" fill="white"/>
<defs>
<filter id="filter0_i_2180_606" x="0.722229" y="0" width="184.167" height="184.167" filterUnits="userSpaceOnUse" color-interpolation-filters="sRGB">
<feFlood flood-opacity="0" result="BackgroundImageFix"/>
<feBlend mode="normal" in="SourceGraphic" in2="BackgroundImageFix" result="shape"/>
<feColorMatrix in="SourceAlpha" type="matrix" values="0 0 0 0 0 0 0 0 0 0 0 0 0 0 0 0 0 0 127 0" result="hardAlpha"/>
<feMorphology radius="3.61111" operator="erode" in="SourceAlpha" result="effect1_innerShadow_2180_606"/>
<feOffset dx="3.61111" dy="3.61111"/>
<feGaussianBlur stdDeviation="1.80556"/>
<feComposite in2="hardAlpha" operator="arithmetic" k2="-1" k3="1"/>
<feColorMatrix type="matrix" values="0 0 0 0 0 0 0 0 0 0 0 0 0 0 0 0 0 0 0.25 0"/>
<feBlend mode="normal" in2="shape" result="effect1_innerShadow_2180_606"/>
</filter>
</defs>
</svg>
