<svg width="338" height="244" viewBox="0 0 338 244" fill="none" xmlns="http://www.w3.org/2000/svg">
<g filter="url(#filter0_i_920_3695)">
<circle cx="169" cy="90.2778" r="90.2778" fill="#675893"/>
</g>
<path d="M190.638 46.4316C175.601 46.4316 163.411 58.6608 163.411 73.7451C163.411 88.8294 175.601 101.059 190.638 101.059C205.674 101.059 217.864 88.8294 217.864 73.7451C217.864 58.6608 205.674 46.4316 190.638 46.4316ZM190.638 98.7824C176.875 98.7824 165.68 87.5511 165.68 73.7451C165.68 59.939 176.875 48.7078 190.638 48.7078C204.4 48.7078 215.596 59.939 215.596 73.7451C215.596 87.5511 204.4 98.7824 190.638 98.7824Z" fill="white"/>
<path d="M180.201 71.5517C182.707 71.5517 184.738 69.5136 184.738 66.9995C184.738 64.4854 182.707 62.4473 180.201 62.4473C177.694 62.4473 175.663 64.4854 175.663 66.9995C175.663 69.5136 177.694 71.5517 180.201 71.5517Z" fill="white"/>
<path d="M201.074 71.5517C203.58 71.5517 205.612 69.5136 205.612 66.9995C205.612 64.4854 203.58 62.4473 201.074 62.4473C198.568 62.4473 196.536 64.4854 196.536 66.9995C196.536 69.5136 198.568 71.5517 201.074 71.5517Z" fill="white"/>
<path d="M190.637 77.9082C184.871 77.9082 180.369 81.1895 178.139 84.8731C177.542 85.8582 178.336 86.9253 179.217 86.3098C186.577 81.1603 194.743 81.1904 202.059 86.3098C202.94 86.9253 203.734 85.8582 203.137 84.8731C200.905 81.1895 196.404 77.9082 190.637 77.9082Z" fill="white"/>
<path d="M148.126 81.9395C133.089 81.9395 120.899 94.1686 120.899 109.253C120.899 124.337 133.089 136.566 148.126 136.566C163.162 136.566 175.353 124.337 175.353 109.253C175.353 94.1686 163.162 81.9395 148.126 81.9395ZM148.126 134.29C134.364 134.29 123.168 123.059 123.168 109.253C123.168 95.4469 134.364 84.2156 148.126 84.2156C161.888 84.2156 173.084 95.4469 173.084 109.253C173.084 123.059 161.888 134.29 148.126 134.29Z" fill="white"/>
<path d="M137.689 107.062C140.195 107.062 142.227 105.023 142.227 102.509C142.227 99.9951 140.195 97.957 137.689 97.957C135.183 97.957 133.151 99.9951 133.151 102.509C133.151 105.023 135.183 107.062 137.689 107.062Z" fill="white"/>
<path d="M158.563 107.062C161.069 107.062 163.1 105.023 163.1 102.509C163.1 99.9951 161.069 97.957 158.563 97.957C156.056 97.957 154.025 99.9951 154.025 102.509C154.025 105.023 156.056 107.062 158.563 107.062Z" fill="white"/>
<path d="M147.938 124.446C153.704 124.398 158.179 121.079 160.378 117.377C160.967 116.387 160.164 115.326 159.288 115.949C151.971 121.16 143.805 121.198 136.447 116.14C135.561 115.532 134.775 116.606 135.381 117.586C137.643 121.251 142.172 124.494 147.938 124.446Z" fill="white"/>
<path d="M5.55525 212.569V216.545H11.9673V220.241H5.55525V224.553H12.8073V228.389H0.76725V208.733H12.8073V212.569H5.55525ZM35.8517 212.597C37.793 212.597 39.333 213.185 40.4717 214.361C41.629 215.537 42.2077 217.17 42.2077 219.261V228.389H37.4477V219.905C37.4477 218.897 37.177 218.122 36.6357 217.581C36.113 217.021 35.385 216.741 34.4517 216.741C33.5184 216.741 32.781 217.021 32.2397 217.581C31.717 218.122 31.4557 218.897 31.4557 219.905V228.389H26.6957V219.905C26.6957 218.897 26.425 218.122 25.8837 217.581C25.361 217.021 24.633 216.741 23.6997 216.741C22.7664 216.741 22.029 217.021 21.4877 217.581C20.965 218.122 20.7037 218.897 20.7037 219.905V228.389H15.9157V212.765H20.7037V214.725C21.189 214.071 21.8237 213.558 22.6077 213.185C23.3917 212.793 24.2784 212.597 25.2677 212.597C26.4437 212.597 27.489 212.849 28.4037 213.353C29.337 213.857 30.065 214.575 30.5877 215.509C31.129 214.65 31.8664 213.95 32.7997 213.409C33.733 212.867 34.7504 212.597 35.8517 212.597ZM52.6683 228.613C51.1376 228.613 49.7563 228.286 48.5243 227.633C47.311 226.979 46.3496 226.046 45.6403 224.833C44.9496 223.619 44.6043 222.201 44.6043 220.577C44.6043 218.971 44.959 217.562 45.6683 216.349C46.3776 215.117 47.3483 214.174 48.5803 213.521C49.8123 212.867 51.1936 212.541 52.7243 212.541C54.255 212.541 55.6363 212.867 56.8683 213.521C58.1003 214.174 59.071 215.117 59.7803 216.349C60.4896 217.562 60.8443 218.971 60.8443 220.577C60.8443 222.182 60.4803 223.601 59.7523 224.833C59.043 226.046 58.063 226.979 56.8123 227.633C55.5803 228.286 54.199 228.613 52.6683 228.613ZM52.6683 224.469C53.583 224.469 54.3576 224.133 54.9923 223.461C55.6456 222.789 55.9723 221.827 55.9723 220.577C55.9723 219.326 55.655 218.365 55.0203 217.693C54.4043 217.021 53.639 216.685 52.7243 216.685C51.791 216.685 51.0163 217.021 50.4003 217.693C49.7843 218.346 49.4763 219.307 49.4763 220.577C49.4763 221.827 49.775 222.789 50.3723 223.461C50.9883 224.133 51.7536 224.469 52.6683 224.469ZM69.7404 228.613C68.3778 228.613 67.1644 228.379 66.1004 227.913C65.0364 227.446 64.1964 226.811 63.5804 226.009C62.9644 225.187 62.6191 224.273 62.5444 223.265H67.2764C67.3324 223.806 67.5844 224.245 68.0324 224.581C68.4804 224.917 69.0311 225.085 69.6844 225.085C70.2818 225.085 70.7391 224.973 71.0564 224.749C71.3924 224.506 71.5604 224.198 71.5604 223.825C71.5604 223.377 71.3271 223.05 70.8604 222.845C70.3938 222.621 69.6378 222.378 68.5924 222.117C67.4724 221.855 66.5391 221.585 65.7924 221.305C65.0458 221.006 64.4018 220.549 63.8604 219.933C63.3191 219.298 63.0484 218.449 63.0484 217.385C63.0484 216.489 63.2911 215.677 63.7764 214.949C64.2804 214.202 65.0084 213.614 65.9604 213.185C66.9311 212.755 68.0791 212.541 69.4044 212.541C71.3644 212.541 72.9044 213.026 74.0244 213.997C75.1631 214.967 75.8164 216.255 75.9844 217.861H71.5604C71.4858 217.319 71.2431 216.89 70.8324 216.573C70.4404 216.255 69.9178 216.097 69.2644 216.097C68.7044 216.097 68.2751 216.209 67.9764 216.433C67.6778 216.638 67.5284 216.927 67.5284 217.301C67.5284 217.749 67.7618 218.085 68.2284 218.309C68.7138 218.533 69.4604 218.757 70.4684 218.981C71.6258 219.279 72.5684 219.578 73.2964 219.877C74.0244 220.157 74.6591 220.623 75.2004 221.277C75.7604 221.911 76.0498 222.77 76.0684 223.853C76.0684 224.767 75.8071 225.589 75.2844 226.317C74.7804 227.026 74.0431 227.586 73.0724 227.997C72.1204 228.407 71.0098 228.613 69.7404 228.613ZM81.4057 211.141C80.5657 211.141 79.8751 210.898 79.3337 210.413C78.8111 209.909 78.5497 209.293 78.5497 208.565C78.5497 207.818 78.8111 207.202 79.3337 206.717C79.8751 206.213 80.5657 205.961 81.4057 205.961C82.2271 205.961 82.8991 206.213 83.4217 206.717C83.9631 207.202 84.2337 207.818 84.2337 208.565C84.2337 209.293 83.9631 209.909 83.4217 210.413C82.8991 210.898 82.2271 211.141 81.4057 211.141ZM83.7857 212.765V228.389H78.9977V212.765H83.7857ZM108.225 228.389L106.405 226.625C104.594 228.006 102.429 228.697 99.9091 228.697C98.3971 228.697 97.0811 228.454 95.9611 227.969C94.8411 227.465 93.9731 226.765 93.3571 225.869C92.7598 224.954 92.4611 223.89 92.4611 222.677C92.4611 221.445 92.7878 220.334 93.4411 219.345C94.1131 218.337 95.1118 217.515 96.4371 216.881C95.9518 216.283 95.6065 215.714 95.4011 215.173C95.1958 214.613 95.0931 214.006 95.0931 213.353C95.0931 212.419 95.3358 211.57 95.8211 210.805C96.3065 210.039 97.0065 209.442 97.9211 209.013C98.8545 208.565 99.9558 208.341 101.225 208.341C102.513 208.341 103.605 208.574 104.501 209.041C105.397 209.507 106.069 210.133 106.517 210.917C106.965 211.701 107.17 212.559 107.133 213.493H102.625C102.644 212.989 102.513 212.606 102.233 212.345C101.972 212.065 101.617 211.925 101.169 211.925C100.721 211.925 100.348 212.055 100.049 212.317C99.7505 212.578 99.6011 212.914 99.6011 213.325C99.6011 213.717 99.7225 214.127 99.9651 214.557C100.226 214.986 100.628 215.481 101.169 216.041L105.957 220.717C105.994 220.623 106.041 220.511 106.097 220.381C106.172 220.25 106.246 220.101 106.321 219.933L107.357 218.169H112.145L110.801 220.605C110.297 221.706 109.718 222.751 109.065 223.741L113.797 228.389H108.225ZM100.133 224.833C101.384 224.833 102.494 224.478 103.465 223.769L99.0971 219.541C97.7531 220.231 97.0811 221.165 97.0811 222.341C97.0811 223.05 97.3518 223.647 97.8931 224.133C98.4531 224.599 99.1998 224.833 100.133 224.833ZM128.575 228.585C127.137 228.585 125.849 228.351 124.711 227.885C123.572 227.418 122.657 226.727 121.967 225.813C121.295 224.898 120.94 223.797 120.903 222.509H125.999C126.073 223.237 126.325 223.797 126.755 224.189C127.184 224.562 127.744 224.749 128.435 224.749C129.144 224.749 129.704 224.59 130.115 224.273C130.525 223.937 130.731 223.479 130.731 222.901C130.731 222.415 130.563 222.014 130.227 221.697C129.909 221.379 129.508 221.118 129.023 220.913C128.556 220.707 127.884 220.474 127.007 220.213C125.737 219.821 124.701 219.429 123.899 219.037C123.096 218.645 122.405 218.066 121.827 217.301C121.248 216.535 120.959 215.537 120.959 214.305C120.959 212.475 121.621 211.047 122.947 210.021C124.272 208.975 125.999 208.453 128.127 208.453C130.292 208.453 132.037 208.975 133.363 210.021C134.688 211.047 135.397 212.485 135.491 214.333H130.311C130.273 213.698 130.04 213.203 129.611 212.849C129.181 212.475 128.631 212.289 127.959 212.289C127.38 212.289 126.913 212.447 126.559 212.765C126.204 213.063 126.027 213.502 126.027 214.081C126.027 214.715 126.325 215.21 126.923 215.565C127.52 215.919 128.453 216.302 129.723 216.713C130.992 217.142 132.019 217.553 132.803 217.945C133.605 218.337 134.296 218.906 134.875 219.653C135.453 220.399 135.743 221.361 135.743 222.537C135.743 223.657 135.453 224.674 134.875 225.589C134.315 226.503 133.493 227.231 132.411 227.773C131.328 228.314 130.049 228.585 128.575 228.585ZM153.417 220.325C153.417 220.773 153.389 221.239 153.333 221.725H142.497C142.572 222.695 142.88 223.442 143.421 223.965C143.981 224.469 144.662 224.721 145.465 224.721C146.66 224.721 147.49 224.217 147.957 223.209H153.053C152.792 224.235 152.316 225.159 151.625 225.981C150.953 226.802 150.104 227.446 149.077 227.913C148.05 228.379 146.902 228.613 145.633 228.613C144.102 228.613 142.74 228.286 141.545 227.633C140.35 226.979 139.417 226.046 138.745 224.833C138.073 223.619 137.737 222.201 137.737 220.577C137.737 218.953 138.064 217.534 138.717 216.321C139.389 215.107 140.322 214.174 141.517 213.521C142.712 212.867 144.084 212.541 145.633 212.541C147.145 212.541 148.489 212.858 149.665 213.493C150.841 214.127 151.756 215.033 152.409 216.209C153.081 217.385 153.417 218.757 153.417 220.325ZM148.517 219.065C148.517 218.243 148.237 217.59 147.677 217.105C147.117 216.619 146.417 216.377 145.577 216.377C144.774 216.377 144.093 216.61 143.533 217.077C142.992 217.543 142.656 218.206 142.525 219.065H148.517ZM160.731 207.669V228.389H155.943V207.669H160.731ZM172.041 216.741H169.465V228.389H164.677V216.741H162.941V212.765H164.677V212.317C164.677 210.394 165.228 208.938 166.329 207.949C167.43 206.941 169.045 206.437 171.173 206.437C171.528 206.437 171.789 206.446 171.957 206.465V210.525C171.042 210.469 170.398 210.599 170.025 210.917C169.652 211.234 169.465 211.803 169.465 212.625V212.765H172.041V216.741ZM192.46 224.917H185.124L183.948 228.389H178.936L186.048 208.733H191.592L198.704 228.389H193.636L192.46 224.917ZM191.228 221.221L188.792 214.025L186.384 221.221H191.228ZM223.297 212.765L219.069 228.389H213.777L211.313 218.253L208.765 228.389H203.501L199.245 212.765H204.033L206.245 223.937L208.877 212.765H213.945L216.605 223.881L218.789 212.765H223.297ZM224.171 220.549C224.171 218.943 224.469 217.534 225.067 216.321C225.683 215.107 226.513 214.174 227.559 213.521C228.604 212.867 229.771 212.541 231.059 212.541C232.16 212.541 233.121 212.765 233.943 213.213C234.783 213.661 235.427 214.249 235.875 214.977V212.765H240.663V228.389H235.875V226.177C235.408 226.905 234.755 227.493 233.915 227.941C233.093 228.389 232.132 228.613 231.031 228.613C229.761 228.613 228.604 228.286 227.559 227.633C226.513 226.961 225.683 226.018 225.067 224.805C224.469 223.573 224.171 222.154 224.171 220.549ZM235.875 220.577C235.875 219.382 235.539 218.439 234.867 217.749C234.213 217.058 233.411 216.713 232.459 216.713C231.507 216.713 230.695 217.058 230.023 217.749C229.369 218.421 229.043 219.354 229.043 220.549C229.043 221.743 229.369 222.695 230.023 223.405C230.695 224.095 231.507 224.441 232.459 224.441C233.411 224.441 234.213 224.095 234.867 223.405C235.539 222.714 235.875 221.771 235.875 220.577ZM248.915 215.369C249.475 214.51 250.175 213.838 251.015 213.353C251.855 212.849 252.788 212.597 253.815 212.597V217.665H252.499C251.304 217.665 250.408 217.926 249.811 218.449C249.213 218.953 248.915 219.849 248.915 221.137V228.389H244.127V212.765H248.915V215.369ZM270.831 220.325C270.831 220.773 270.803 221.239 270.747 221.725H259.911C259.986 222.695 260.294 223.442 260.835 223.965C261.395 224.469 262.077 224.721 262.879 224.721C264.074 224.721 264.905 224.217 265.371 223.209H270.467C270.206 224.235 269.73 225.159 269.039 225.981C268.367 226.802 267.518 227.446 266.491 227.913C265.465 228.379 264.317 228.613 263.047 228.613C261.517 228.613 260.154 228.286 258.959 227.633C257.765 226.979 256.831 226.046 256.159 224.833C255.487 223.619 255.151 222.201 255.151 220.577C255.151 218.953 255.478 217.534 256.131 216.321C256.803 215.107 257.737 214.174 258.931 213.521C260.126 212.867 261.498 212.541 263.047 212.541C264.559 212.541 265.903 212.858 267.079 213.493C268.255 214.127 269.17 215.033 269.823 216.209C270.495 217.385 270.831 218.757 270.831 220.325ZM265.931 219.065C265.931 218.243 265.651 217.59 265.091 217.105C264.531 216.619 263.831 216.377 262.991 216.377C262.189 216.377 261.507 216.61 260.947 217.077C260.406 217.543 260.07 218.206 259.939 219.065H265.931ZM282.877 212.597C284.706 212.597 286.162 213.194 287.245 214.389C288.346 215.565 288.897 217.189 288.897 219.261V228.389H284.137V219.905C284.137 218.859 283.866 218.047 283.325 217.469C282.784 216.89 282.056 216.601 281.141 216.601C280.226 216.601 279.498 216.89 278.957 217.469C278.416 218.047 278.145 218.859 278.145 219.905V228.389H273.357V212.765H278.145V214.837C278.63 214.146 279.284 213.605 280.105 213.213C280.926 212.802 281.85 212.597 282.877 212.597ZM306.952 220.325C306.952 220.773 306.924 221.239 306.868 221.725H296.032C296.107 222.695 296.415 223.442 296.956 223.965C297.516 224.469 298.198 224.721 299 224.721C300.195 224.721 301.026 224.217 301.492 223.209H306.588C306.327 224.235 305.851 225.159 305.16 225.981C304.488 226.802 303.639 227.446 302.612 227.913C301.586 228.379 300.438 228.613 299.168 228.613C297.638 228.613 296.275 228.286 295.08 227.633C293.886 226.979 292.952 226.046 292.28 224.833C291.608 223.619 291.272 222.201 291.272 220.577C291.272 218.953 291.599 217.534 292.252 216.321C292.924 215.107 293.858 214.174 295.052 213.521C296.247 212.867 297.619 212.541 299.168 212.541C300.68 212.541 302.024 212.858 303.2 213.493C304.376 214.127 305.291 215.033 305.944 216.209C306.616 217.385 306.952 218.757 306.952 220.325ZM302.052 219.065C302.052 218.243 301.772 217.59 301.212 217.105C300.652 216.619 299.952 216.377 299.112 216.377C298.31 216.377 297.628 216.61 297.068 217.077C296.527 217.543 296.191 218.206 296.06 219.065H302.052ZM315.834 228.613C314.472 228.613 313.258 228.379 312.194 227.913C311.13 227.446 310.29 226.811 309.674 226.009C309.058 225.187 308.713 224.273 308.638 223.265H313.37C313.426 223.806 313.678 224.245 314.126 224.581C314.574 224.917 315.125 225.085 315.778 225.085C316.376 225.085 316.833 224.973 317.15 224.749C317.486 224.506 317.654 224.198 317.654 223.825C317.654 223.377 317.421 223.05 316.954 222.845C316.488 222.621 315.732 222.378 314.686 222.117C313.566 221.855 312.633 221.585 311.886 221.305C311.14 221.006 310.496 220.549 309.954 219.933C309.413 219.298 309.142 218.449 309.142 217.385C309.142 216.489 309.385 215.677 309.87 214.949C310.374 214.202 311.102 213.614 312.054 213.185C313.025 212.755 314.173 212.541 315.498 212.541C317.458 212.541 318.998 213.026 320.118 213.997C321.257 214.967 321.91 216.255 322.078 217.861H317.654C317.58 217.319 317.337 216.89 316.926 216.573C316.534 216.255 316.012 216.097 315.358 216.097C314.798 216.097 314.369 216.209 314.07 216.433C313.772 216.638 313.622 216.927 313.622 217.301C313.622 217.749 313.856 218.085 314.322 218.309C314.808 218.533 315.554 218.757 316.562 218.981C317.72 219.279 318.662 219.578 319.39 219.877C320.118 220.157 320.753 220.623 321.294 221.277C321.854 221.911 322.144 222.77 322.162 223.853C322.162 224.767 321.901 225.589 321.378 226.317C320.874 227.026 320.137 227.586 319.166 227.997C318.214 228.407 317.104 228.613 315.834 228.613ZM331.447 228.613C330.085 228.613 328.871 228.379 327.807 227.913C326.743 227.446 325.903 226.811 325.287 226.009C324.671 225.187 324.326 224.273 324.251 223.265H328.983C329.039 223.806 329.291 224.245 329.739 224.581C330.187 224.917 330.738 225.085 331.391 225.085C331.989 225.085 332.446 224.973 332.763 224.749C333.099 224.506 333.267 224.198 333.267 223.825C333.267 223.377 333.034 223.05 332.567 222.845C332.101 222.621 331.345 222.378 330.299 222.117C329.179 221.855 328.246 221.585 327.499 221.305C326.753 221.006 326.109 220.549 325.567 219.933C325.026 219.298 324.755 218.449 324.755 217.385C324.755 216.489 324.998 215.677 325.483 214.949C325.987 214.202 326.715 213.614 327.667 213.185C328.638 212.755 329.786 212.541 331.111 212.541C333.071 212.541 334.611 213.026 335.731 213.997C336.87 214.967 337.523 216.255 337.691 217.861H333.267C333.193 217.319 332.95 216.89 332.539 216.573C332.147 216.255 331.625 216.097 330.971 216.097C330.411 216.097 329.982 216.209 329.683 216.433C329.385 216.638 329.235 216.927 329.235 217.301C329.235 217.749 329.469 218.085 329.935 218.309C330.421 218.533 331.167 218.757 332.175 218.981C333.333 219.279 334.275 219.578 335.003 219.877C335.731 220.157 336.366 220.623 336.907 221.277C337.467 221.911 337.757 222.77 337.775 223.853C337.775 224.767 337.514 225.589 336.991 226.317C336.487 227.026 335.75 227.586 334.779 227.997C333.827 228.407 332.717 228.613 331.447 228.613Z" fill="#675893"/>
<defs>
<filter id="filter0_i_920_3695" x="78.7222" y="0" width="184.167" height="184.167" filterUnits="userSpaceOnUse" color-interpolation-filters="sRGB">
<feFlood flood-opacity="0" result="BackgroundImageFix"/>
<feBlend mode="normal" in="SourceGraphic" in2="BackgroundImageFix" result="shape"/>
<feColorMatrix in="SourceAlpha" type="matrix" values="0 0 0 0 0 0 0 0 0 0 0 0 0 0 0 0 0 0 127 0" result="hardAlpha"/>
<feMorphology radius="3.61111" operator="erode" in="SourceAlpha" result="effect1_innerShadow_920_3695"/>
<feOffset dx="3.61111" dy="3.61111"/>
<feGaussianBlur stdDeviation="1.80556"/>
<feComposite in2="hardAlpha" operator="arithmetic" k2="-1" k3="1"/>
<feColorMatrix type="matrix" values="0 0 0 0 0 0 0 0 0 0 0 0 0 0 0 0 0 0 0.25 0"/>
<feBlend mode="normal" in2="shape" result="effect1_innerShadow_920_3695"/>
</filter>
</defs>
</svg>
