<svg width="182" height="244" viewBox="0 0 182 244" fill="none" xmlns="http://www.w3.org/2000/svg">
<g filter="url(#filter0_i_920_3715)">
<circle cx="91" cy="90.2778" r="90.2778" fill="#675893"/>
</g>
<path d="M56.7542 228.585C55.3169 228.585 54.0289 228.351 52.8902 227.885C51.7516 227.418 50.8369 226.727 50.1462 225.813C49.4742 224.898 49.1196 223.797 49.0822 222.509H54.1782C54.2529 223.237 54.5049 223.797 54.9342 224.189C55.3636 224.562 55.9236 224.749 56.6142 224.749C57.3236 224.749 57.8836 224.59 58.2942 224.273C58.7049 223.937 58.9102 223.479 58.9102 222.901C58.9102 222.415 58.7422 222.014 58.4062 221.697C58.0889 221.379 57.6876 221.118 57.2022 220.913C56.7356 220.707 56.0636 220.474 55.1862 220.213C53.9169 219.821 52.8809 219.429 52.0782 219.037C51.2756 218.645 50.5849 218.066 50.0062 217.301C49.4276 216.535 49.1382 215.537 49.1382 214.305C49.1382 212.475 49.8009 211.047 51.1262 210.021C52.4516 208.975 54.1782 208.453 56.3062 208.453C58.4716 208.453 60.2169 208.975 61.5422 210.021C62.8676 211.047 63.5769 212.485 63.6702 214.333H58.4902C58.4529 213.698 58.2196 213.203 57.7902 212.849C57.3609 212.475 56.8102 212.289 56.1382 212.289C55.5596 212.289 55.0929 212.447 54.7382 212.765C54.3836 213.063 54.2062 213.502 54.2062 214.081C54.2062 214.715 54.5049 215.21 55.1022 215.565C55.6996 215.919 56.6329 216.302 57.9022 216.713C59.1716 217.142 60.1982 217.553 60.9822 217.945C61.7849 218.337 62.4756 218.906 63.0542 219.653C63.6329 220.399 63.9222 221.361 63.9222 222.537C63.9222 223.657 63.6329 224.674 63.0542 225.589C62.4942 226.503 61.6729 227.231 60.5902 227.773C59.5076 228.314 58.2289 228.585 56.7542 228.585ZM73.9808 228.613C72.4501 228.613 71.0688 228.286 69.8368 227.633C68.6235 226.979 67.6621 226.046 66.9528 224.833C66.2621 223.619 65.9168 222.201 65.9168 220.577C65.9168 218.971 66.2715 217.562 66.9808 216.349C67.6901 215.117 68.6608 214.174 69.8928 213.521C71.1248 212.867 72.5061 212.541 74.0368 212.541C75.5675 212.541 76.9488 212.867 78.1808 213.521C79.4128 214.174 80.3835 215.117 81.0928 216.349C81.8021 217.562 82.1568 218.971 82.1568 220.577C82.1568 222.182 81.7928 223.601 81.0648 224.833C80.3555 226.046 79.3755 226.979 78.1248 227.633C76.8928 228.286 75.5115 228.613 73.9808 228.613ZM73.9808 224.469C74.8955 224.469 75.6701 224.133 76.3048 223.461C76.9581 222.789 77.2848 221.827 77.2848 220.577C77.2848 219.326 76.9675 218.365 76.3328 217.693C75.7168 217.021 74.9515 216.685 74.0368 216.685C73.1035 216.685 72.3288 217.021 71.7128 217.693C71.0968 218.346 70.7888 219.307 70.7888 220.577C70.7888 221.827 71.0875 222.789 71.6848 223.461C72.3008 224.133 73.0661 224.469 73.9808 224.469ZM91.0529 228.613C89.6903 228.613 88.4769 228.379 87.4129 227.913C86.3489 227.446 85.5089 226.811 84.8929 226.009C84.2769 225.187 83.9316 224.273 83.8569 223.265H88.5889C88.6449 223.806 88.8969 224.245 89.3449 224.581C89.7929 224.917 90.3436 225.085 90.9969 225.085C91.5943 225.085 92.0516 224.973 92.3689 224.749C92.7049 224.506 92.8729 224.198 92.8729 223.825C92.8729 223.377 92.6396 223.05 92.1729 222.845C91.7063 222.621 90.9503 222.378 89.9049 222.117C88.7849 221.855 87.8516 221.585 87.1049 221.305C86.3583 221.006 85.7143 220.549 85.1729 219.933C84.6316 219.298 84.3609 218.449 84.3609 217.385C84.3609 216.489 84.6036 215.677 85.0889 214.949C85.5929 214.202 86.3209 213.614 87.2729 213.185C88.2436 212.755 89.3916 212.541 90.7169 212.541C92.6769 212.541 94.2169 213.026 95.3369 213.997C96.4756 214.967 97.1289 216.255 97.2969 217.861H92.8729C92.7983 217.319 92.5556 216.89 92.1449 216.573C91.7529 216.255 91.2303 216.097 90.5769 216.097C90.0169 216.097 89.5876 216.209 89.2889 216.433C88.9903 216.638 88.8409 216.927 88.8409 217.301C88.8409 217.749 89.0743 218.085 89.5409 218.309C90.0263 218.533 90.7729 218.757 91.7809 218.981C92.9383 219.279 93.8809 219.578 94.6089 219.877C95.3369 220.157 95.9716 220.623 96.5129 221.277C97.0729 221.911 97.3623 222.77 97.3809 223.853C97.3809 224.767 97.1196 225.589 96.5969 226.317C96.0929 227.026 95.3556 227.586 94.3849 227.997C93.4329 228.407 92.3223 228.613 91.0529 228.613ZM102.718 211.141C101.878 211.141 101.188 210.898 100.646 210.413C100.124 209.909 99.8622 209.293 99.8622 208.565C99.8622 207.818 100.124 207.202 100.646 206.717C101.188 206.213 101.878 205.961 102.718 205.961C103.54 205.961 104.212 206.213 104.734 206.717C105.276 207.202 105.546 207.818 105.546 208.565C105.546 209.293 105.276 209.909 104.734 210.413C104.212 210.898 103.54 211.141 102.718 211.141ZM105.098 212.765V228.389H100.31V212.765H105.098ZM107.616 220.549C107.616 218.943 107.915 217.534 108.512 216.321C109.128 215.107 109.959 214.174 111.004 213.521C112.049 212.867 113.216 212.541 114.504 212.541C115.605 212.541 116.567 212.765 117.388 213.213C118.228 213.661 118.872 214.249 119.32 214.977V212.765H124.108V228.389H119.32V226.177C118.853 226.905 118.2 227.493 117.36 227.941C116.539 228.389 115.577 228.613 114.476 228.613C113.207 228.613 112.049 228.286 111.004 227.633C109.959 226.961 109.128 226.018 108.512 224.805C107.915 223.573 107.616 222.154 107.616 220.549ZM119.32 220.577C119.32 219.382 118.984 218.439 118.312 217.749C117.659 217.058 116.856 216.713 115.904 216.713C114.952 216.713 114.14 217.058 113.468 217.749C112.815 218.421 112.488 219.354 112.488 220.549C112.488 221.743 112.815 222.695 113.468 223.405C114.14 224.095 114.952 224.441 115.904 224.441C116.856 224.441 117.659 224.095 118.312 223.405C118.984 222.714 119.32 221.771 119.32 220.577ZM132.36 207.669V228.389H127.572V207.669H132.36Z" fill="#675893"/>
<path fill-rule="evenodd" clip-rule="evenodd" d="M106.934 46.4494C106.934 45.5588 107.848 44.9724 108.64 45.3557L117.672 49.7241L108.64 54.0927C107.848 54.4754 106.934 53.8896 106.934 52.9986V46.4494ZM117.672 49.7241L126.704 45.3557C127.496 44.9724 128.41 45.5588 128.41 46.4494V52.9986C128.41 53.8896 127.496 54.4754 126.704 54.0927L117.672 49.7241ZM117.672 60.9434C113.966 60.9434 110.961 64.2922 110.961 68.423C110.961 72.5538 113.966 75.9025 117.672 75.9025C121.379 75.9025 124.384 72.5538 124.384 68.423C124.384 64.2922 121.379 60.9434 117.672 60.9434ZM105.592 68.423C105.592 60.9874 111 54.9598 117.672 54.9598C124.344 54.9598 129.753 60.9874 129.753 68.423C129.753 73.6332 127.097 78.1521 123.212 80.3903H124.384C126.628 80.3903 128.723 81.6403 129.968 83.7211L140.706 101.672C142.762 105.109 141.928 109.753 138.844 112.044C137.265 113.218 135.401 113.547 133.683 113.127L136.181 118.694L138.123 123.024H133.779H131.095V129.755C131.095 133.886 128.09 137.235 124.384 137.235C120.677 137.235 117.672 133.886 117.672 129.755C117.672 133.886 114.668 137.235 110.961 137.235C107.254 137.235 104.25 133.886 104.25 129.755V123.024H101.565H97.2213L99.1638 118.694L101.662 113.127C99.9431 113.547 98.0795 113.218 96.4999 112.044C93.416 109.753 92.5827 105.109 94.6385 101.672L105.377 83.7211C106.621 81.6403 108.717 80.3903 110.961 80.3903H112.133C108.247 78.1521 105.592 73.6332 105.592 68.423ZM105.909 117.04H106.934H109.619V120.032V129.755C109.619 130.581 110.22 131.251 110.961 131.251C111.702 131.251 112.303 130.581 112.303 129.755V120.032V117.04H114.988H120.357H123.041V120.032V129.755C123.041 130.581 123.642 131.251 124.384 131.251C125.125 131.251 125.726 130.581 125.726 129.755V120.032V117.04H128.41H129.436L126.009 109.403L125.726 108.771V108.065V102.692V92.8106L130.644 101.032L134.005 106.65C134.416 107.338 135.25 107.524 135.866 107.065C136.483 106.607 136.65 105.678 136.239 104.991L125.5 87.0399C125.252 86.6241 124.832 86.3739 124.384 86.3739H110.961C110.512 86.3739 110.093 86.6241 109.844 87.0399L99.1058 104.991C98.6948 105.678 98.8615 106.607 99.4782 107.065C100.095 107.524 100.928 107.338 101.34 106.65L104.7 101.032L109.619 92.8106V102.692V108.065V108.771L109.335 109.403L105.909 117.04ZM58.6123 68.5076C58.6123 64.3768 61.6171 61.0281 65.3237 61.0281C69.0302 61.0281 72.035 64.3768 72.035 68.5076C72.035 72.6385 69.0302 75.9872 65.3237 75.9872C61.6171 75.9872 58.6123 72.6385 58.6123 68.5076ZM65.3237 55.0444C58.6518 55.0444 53.2433 61.0721 53.2433 68.5076C53.2433 73.7179 55.8988 78.2368 59.7839 80.4749H57.2701C55.0261 80.4749 52.9306 81.7249 51.6858 83.8057L40.9477 101.757C38.8917 105.194 39.725 109.838 42.8091 112.129C45.2409 113.936 48.3461 113.74 50.5587 111.892V129.84C50.5587 133.971 53.5636 137.32 57.2701 137.32C60.9766 137.32 63.9814 133.971 63.9814 129.84V117.873H66.6659V129.84C66.6659 133.971 69.6707 137.32 73.3773 137.32C77.0838 137.32 80.0886 133.971 80.0886 129.84V111.892C82.3012 113.74 85.4061 113.936 87.838 112.129C90.922 109.838 91.7556 105.194 89.6995 101.757L78.9614 83.8057C77.7165 81.7249 75.621 80.4749 73.3773 80.4749H70.8635C74.7483 78.2368 77.4041 73.7179 77.4041 68.5076C77.4041 61.0721 71.9953 55.0444 65.3237 55.0444ZM56.153 87.1249C56.4022 86.7087 56.8212 86.4586 57.2701 86.4586H73.3773C73.8259 86.4586 74.2452 86.7087 74.494 87.1249L85.2322 105.076C85.6434 105.763 85.4767 106.692 84.8598 107.15C84.2432 107.608 83.4096 107.423 82.9984 106.735L79.6376 101.117L74.7195 92.8952V102.777V129.84C74.7195 130.666 74.1185 131.336 73.3773 131.336C72.6358 131.336 72.035 130.666 72.035 129.84V114.881V111.889H69.3505H61.2969H58.6123V114.881V129.84C58.6123 130.666 58.0113 131.336 57.2701 131.336C56.5286 131.336 55.9278 130.666 55.9278 129.84V102.777V92.8952L51.0095 101.117L47.6487 106.735C47.2375 107.423 46.4041 107.608 45.7873 107.15C45.1705 106.692 45.0038 105.763 45.415 105.076L56.153 87.1249Z" fill="white"/>
<defs>
<filter id="filter0_i_920_3715" x="0.722229" y="0" width="184.167" height="184.167" filterUnits="userSpaceOnUse" color-interpolation-filters="sRGB">
<feFlood flood-opacity="0" result="BackgroundImageFix"/>
<feBlend mode="normal" in="SourceGraphic" in2="BackgroundImageFix" result="shape"/>
<feColorMatrix in="SourceAlpha" type="matrix" values="0 0 0 0 0 0 0 0 0 0 0 0 0 0 0 0 0 0 127 0" result="hardAlpha"/>
<feMorphology radius="3.61111" operator="erode" in="SourceAlpha" result="effect1_innerShadow_920_3715"/>
<feOffset dx="3.61111" dy="3.61111"/>
<feGaussianBlur stdDeviation="1.80556"/>
<feComposite in2="hardAlpha" operator="arithmetic" k2="-1" k3="1"/>
<feColorMatrix type="matrix" values="0 0 0 0 0 0 0 0 0 0 0 0 0 0 0 0 0 0 0.25 0"/>
<feBlend mode="normal" in2="shape" result="effect1_innerShadow_920_3715"/>
</filter>
</defs>
</svg>
