<svg width="182" height="244" viewBox="0 0 182 244" fill="none" xmlns="http://www.w3.org/2000/svg">
<g filter="url(#filter0_i_920_3709)">
<circle cx="91" cy="90.2778" r="90.2778" fill="#675893"/>
</g>
<path d="M122.861 57.7092L122.861 57.7093C124.214 59.0826 124.214 61.3236 122.861 62.697L105.599 80.2162L104.904 80.9215V81.9115V131.297C104.904 133.269 103.339 134.806 101.482 134.806H98.5637C96.7074 134.806 95.1417 133.269 95.1417 131.297V110.561V108.146H92.7262H89.8075H87.392V110.561V131.297C87.392 133.269 85.8263 134.806 83.9701 134.806H81.0513C79.195 134.806 77.6294 133.269 77.6294 131.297V81.9115V80.9214L76.9345 80.2162L59.6726 62.6971C58.3194 61.3238 58.3194 59.0826 59.6726 57.7093L59.6727 57.7092C61.0061 56.3558 63.1532 56.3558 64.4866 57.7092L64.4867 57.7093L80.2892 73.7474L80.9988 74.4676H82.0098H100.524H101.535L102.244 73.7474L118.047 57.7093L118.047 57.7092C119.381 56.3558 121.528 56.3558 122.861 57.7092ZM80.5481 55.7598C80.5481 49.6979 85.3805 44.8452 91.2669 44.8452C97.1532 44.8452 101.986 49.6979 101.986 55.7598C101.986 61.8215 97.1532 66.6744 91.2669 66.6744C85.3806 66.6744 80.5481 61.8215 80.5481 55.7598Z" stroke="white" stroke-width="4.83098"/>
<path d="M48.5168 215.061C48.5168 216.199 48.2554 217.245 47.7328 218.197C47.2101 219.13 46.4074 219.886 45.3248 220.465C44.2421 221.043 42.8981 221.333 41.2928 221.333H38.3248V228.389H33.5368V208.733H41.2928C42.8608 208.733 44.1861 209.003 45.2688 209.545C46.3514 210.086 47.1634 210.833 47.7048 211.785C48.2461 212.737 48.5168 213.829 48.5168 215.061ZM40.9288 217.525C41.8434 217.525 42.5248 217.31 42.9728 216.881C43.4208 216.451 43.6448 215.845 43.6448 215.061C43.6448 214.277 43.4208 213.67 42.9728 213.241C42.5248 212.811 41.8434 212.597 40.9288 212.597H38.3248V217.525H40.9288ZM65.7374 220.325C65.7374 220.773 65.7094 221.239 65.6534 221.725H54.8174C54.8921 222.695 55.2001 223.442 55.7414 223.965C56.3014 224.469 56.9828 224.721 57.7854 224.721C58.9801 224.721 59.8108 224.217 60.2774 223.209H65.3734C65.1121 224.235 64.6361 225.159 63.9454 225.981C63.2734 226.802 62.4241 227.446 61.3974 227.913C60.3708 228.379 59.2228 228.613 57.9534 228.613C56.4228 228.613 55.0601 228.286 53.8654 227.633C52.6708 226.979 51.7374 226.046 51.0654 224.833C50.3934 223.619 50.0574 222.201 50.0574 220.577C50.0574 218.953 50.3841 217.534 51.0374 216.321C51.7094 215.107 52.6428 214.174 53.8374 213.521C55.0321 212.867 56.4041 212.541 57.9534 212.541C59.4654 212.541 60.8094 212.858 61.9854 213.493C63.1614 214.127 64.0761 215.033 64.7294 216.209C65.4014 217.385 65.7374 218.757 65.7374 220.325ZM60.8374 219.065C60.8374 218.243 60.5574 217.59 59.9974 217.105C59.4374 216.619 58.7374 216.377 57.8974 216.377C57.0948 216.377 56.4134 216.61 55.8534 217.077C55.3121 217.543 54.9761 218.206 54.8454 219.065H60.8374ZM73.0513 215.369C73.6113 214.51 74.3113 213.838 75.1513 213.353C75.9913 212.849 76.9247 212.597 77.9513 212.597V217.665H76.6353C75.4407 217.665 74.5447 217.926 73.9473 218.449C73.35 218.953 73.0513 219.849 73.0513 221.137V228.389H68.2633V212.765H73.0513V215.369ZM82.6479 211.141C81.8079 211.141 81.1172 210.898 80.5759 210.413C80.0532 209.909 79.7919 209.293 79.7919 208.565C79.7919 207.818 80.0532 207.202 80.5759 206.717C81.1172 206.213 81.8079 205.961 82.6479 205.961C83.4692 205.961 84.1412 206.213 84.6639 206.717C85.2052 207.202 85.4759 207.818 85.4759 208.565C85.4759 209.293 85.2052 209.909 84.6639 210.413C84.1412 210.898 83.4692 211.141 82.6479 211.141ZM85.0279 212.765V228.389H80.2399V212.765H85.0279ZM93.2857 207.669V228.389H88.4977V207.669H93.2857ZM95.8035 220.549C95.8035 218.943 96.1022 217.534 96.6995 216.321C97.3155 215.107 98.1462 214.174 99.1915 213.521C100.237 212.867 101.404 212.541 102.692 212.541C103.793 212.541 104.754 212.765 105.576 213.213C106.416 213.661 107.06 214.249 107.508 214.977V212.765H112.296V228.389H107.508V226.177C107.041 226.905 106.388 227.493 105.548 227.941C104.726 228.389 103.765 228.613 102.664 228.613C101.394 228.613 100.237 228.286 99.1915 227.633C98.1462 226.961 97.3155 226.018 96.6995 224.805C96.1022 223.573 95.8035 222.154 95.8035 220.549ZM107.508 220.577C107.508 219.382 107.172 218.439 106.5 217.749C105.846 217.058 105.044 216.713 104.092 216.713C103.14 216.713 102.328 217.058 101.656 217.749C101.002 218.421 100.676 219.354 100.676 220.549C100.676 221.743 101.002 222.695 101.656 223.405C102.328 224.095 103.14 224.441 104.092 224.441C105.044 224.441 105.846 224.095 106.5 223.405C107.172 222.714 107.508 221.771 107.508 220.577ZM125.307 228.389L120.547 221.837V228.389H115.759V207.669H120.547V219.121L125.279 212.765H131.187L124.691 220.605L131.243 228.389H125.307ZM148.496 212.765V228.389H143.708V226.261C143.223 226.951 142.56 227.511 141.72 227.941C140.899 228.351 139.984 228.557 138.976 228.557C137.781 228.557 136.727 228.295 135.812 227.773C134.897 227.231 134.188 226.457 133.684 225.449C133.18 224.441 132.928 223.255 132.928 221.893V212.765H137.688V221.249C137.688 222.294 137.959 223.106 138.5 223.685C139.041 224.263 139.769 224.553 140.684 224.553C141.617 224.553 142.355 224.263 142.896 223.685C143.437 223.106 143.708 222.294 143.708 221.249V212.765H148.496Z" fill="#675893"/>
<defs>
<filter id="filter0_i_920_3709" x="0.722229" y="0" width="184.167" height="184.167" filterUnits="userSpaceOnUse" color-interpolation-filters="sRGB">
<feFlood flood-opacity="0" result="BackgroundImageFix"/>
<feBlend mode="normal" in="SourceGraphic" in2="BackgroundImageFix" result="shape"/>
<feColorMatrix in="SourceAlpha" type="matrix" values="0 0 0 0 0 0 0 0 0 0 0 0 0 0 0 0 0 0 127 0" result="hardAlpha"/>
<feMorphology radius="3.61111" operator="erode" in="SourceAlpha" result="effect1_innerShadow_920_3709"/>
<feOffset dx="3.61111" dy="3.61111"/>
<feGaussianBlur stdDeviation="1.80556"/>
<feComposite in2="hardAlpha" operator="arithmetic" k2="-1" k3="1"/>
<feColorMatrix type="matrix" values="0 0 0 0 0 0 0 0 0 0 0 0 0 0 0 0 0 0 0.25 0"/>
<feBlend mode="normal" in2="shape" result="effect1_innerShadow_920_3709"/>
</filter>
</defs>
</svg>
