<svg width="70" height="70" viewBox="0 0 70 70" fill="none" xmlns="http://www.w3.org/2000/svg">
<g clip-path="url(#clip0_1779_472)">
<path d="M27.7025 16.8961C31.8442 11.3428 38.0713 9.72114 43.7996 11.2816C49.9829 12.9645 55.4196 18.2757 57.225 25.6724C57.3183 26.0516 57.4 26.4307 57.4671 26.8099C54.8607 25.8818 52.0261 25.8103 49.3763 26.6057C45.6225 23.8291 40.9733 23.3624 36.8404 24.8849C31.6633 26.7953 27.6208 31.6399 26.6846 37.7357C25.4888 45.5407 30.2429 52.5524 36.9658 58.5141L38.0975 59.4941C37.1846 59.5582 36.2571 59.4153 35.3704 59.2257C34.9147 59.1283 34.4615 59.0194 34.0113 58.8991L32.445 58.4616C18.5208 54.5445 9.19918 48.4166 6.52459 39.2582C4.38959 31.9491 6.44293 24.6311 10.9579 20.0811C15.1404 15.8666 21.3413 14.1574 27.7025 16.8961ZM32.4508 38.6195C33.6992 30.4761 43.1171 26.4628 47.9529 33.4511C47.9993 33.5161 48.0693 33.5602 48.148 33.5738C48.2266 33.5875 48.3074 33.5696 48.3729 33.5241C55.3058 28.6124 62.7813 35.6036 61.1683 43.6828C60.235 48.367 55.8892 52.2578 48.1308 55.3495L46.8621 55.8453L46.095 56.1603C45.4329 56.4199 44.7329 56.627 44.1 56.5161C43.47 56.4053 42.8838 55.9678 42.35 55.5011L41.4458 54.6845C34.6996 48.8774 31.7013 43.5224 32.4508 38.6195Z" fill="#8676B4"/>
</g>
<defs>
<clipPath id="clip0_1779_472">
<rect width="70" height="70" fill="white"/>
</clipPath>
</defs>
</svg>
