<svg width="182" height="181" viewBox="0 0 182 181" fill="none" xmlns="http://www.w3.org/2000/svg">
<g filter="url(#filter0_i_920_3682)">
<circle cx="91" cy="90.2778" r="90.2778" fill="#675893"/>
</g>
<mask id="mask0_920_3682" style="mask-type:luminance" maskUnits="userSpaceOnUse" x="27" y="27" width="128" height="127">
<path d="M27.8052 27.082H154.194V153.471H27.8052V27.082Z" fill="white"/>
</mask>
<g mask="url(#mask0_920_3682)">
<path d="M82.3127 65.4453C81.1248 64.2909 79.2042 64.2964 78.023 65.4574L74.1059 69.3074C73.6842 69.722 73.1108 69.955 72.5127 69.955H67.3476C65.6724 69.955 64.3144 71.2822 64.3144 72.9195C64.3144 74.5568 65.6724 75.884 67.3476 75.884H67.3526H67.3575H67.3625H67.3676H67.3726H67.3777H67.3829H67.3879H67.393H67.3984H67.4036H67.4088H67.4141H67.4195H67.4247H67.4301H67.4355H67.4411H67.4465H67.4519H67.4575H67.4629H67.4685H67.4741H67.4798H67.4854H67.4912H67.4968H67.5027H67.5083H67.5141H67.52H67.5258H67.5317H67.5375H67.5436H67.5494H67.5555H67.5613H67.5674H67.5734H67.5795H67.5856H67.5919H67.5979H67.6042H67.6103H67.6166H67.6229H67.6292H67.6355H67.6417H67.6483H67.6546H67.6611H67.6674H67.6739H67.6804H67.6869H67.6934H67.7002H67.7067H67.7134H67.7199H67.7267H67.7334H67.7402H67.7469H67.7536H67.7604H67.7671H67.7741H67.7808H67.7878H67.7948H67.8017H67.8087H67.8157H67.8226H67.8298H67.8368H67.844H67.8509H67.8581H67.8653H67.8725H67.8797H67.8869H67.8943H67.9015H67.9089H67.9161H67.9235H67.9309H67.9383H67.9457H67.9532H67.9606H67.968H67.9756H67.983H67.9907H67.9983H68.006H68.0136H68.0212H68.0289H68.0365H68.0442H68.052H68.0599H68.0675H68.0754H68.0833H68.0911H68.099H68.1068H68.1147H68.1228H68.1307H68.1387H68.1466H68.1547H68.1628H68.1709H68.179H68.1871H68.1951H68.2032H68.2115H68.2196H68.2279H68.236H68.2443H68.2527H68.261H68.2693H68.2776H68.2859H68.2945H68.3028H68.3113H68.3196H68.3282H68.3367H68.3452H68.3538H68.3623H68.3708H68.3794H68.3879H68.3967H68.4052H68.414H68.4227H68.4313H68.44H68.4488H68.4576H68.4663H68.4753H68.4841H68.4928H68.5018H68.5106H68.5196H68.5286H68.5373H68.5463H68.5553H68.5643H68.5733H68.5825H68.5915H68.6005H68.6097H68.6187H68.6279H68.6371H68.6461H68.6553H68.6645H68.6737H68.6829H68.6924H68.7016H68.7108H68.7202H68.7294H68.7389H68.7481H68.7575H68.767H68.7764H68.7858H68.7953H68.8047H68.8141H68.8236H68.8332H68.8427H68.8523H68.8618H68.8714H68.8811H68.8908H68.9002H68.9099H68.9195H68.9294H68.9391H68.9487H68.9584H68.9683H68.9779H68.9878H68.9975H69.0074H69.0173H69.0271H69.0368H69.0467H69.0566H69.0667H69.0766H69.0865H69.0963H69.1065H69.1163H69.1265H69.1363H69.1465H69.1566H69.1664H69.1766H69.1867H69.1968H69.2069H69.217H69.2271H69.2374H69.2476H69.2577H69.268H69.2781H69.2885H69.2988H69.3089H69.3192H69.3296H69.3399H69.3502H69.3606H69.3709H69.3812H69.3916H69.4019H69.4125H69.4228H69.4331H69.4437H69.4543H69.4646H69.4752H69.4857H69.4961H69.5066H69.5172H69.5277H69.5383H69.5489H69.5594H69.57H69.5808H69.5913H69.6019H69.6127H69.6232H69.634H69.6446H69.6554H69.6661H69.6767H69.6875H69.6983H69.7091H69.7198H69.7306H69.7414H69.7522H69.763H69.774H69.7848H69.7956H69.8066H69.8174H69.8281H69.8392H69.8502H69.8609H69.872H69.883H69.8937H69.9048H69.9158H69.9268H69.9378H69.9488H69.9598H69.9708H69.9818H69.9931H70.0041H70.0151H70.0261H70.0373H70.0483H70.0596H70.0706H70.0818H70.0928H70.1041H70.1153H70.1263H70.1375H70.1488H70.16H70.1712H70.1825H70.1937H70.2049H70.2162H70.2274H70.2386H70.2499H70.2613H70.2726H70.2838H70.2953H70.3065H70.3177H70.3292H70.3404H70.3519H70.3631H70.3746H70.386H70.3973H70.4087H70.4202H70.4316H70.4431H70.4543H70.4658H70.4773H70.4887H70.5002H70.5116H70.5231H70.5348H70.5462H70.5577H70.5691H70.5806H70.5923H70.6037H70.6152H70.6269H70.6383H70.65H70.6615H70.6732H70.6846H70.6963H70.7078H70.7195H70.7311H70.7426H70.7543H70.766H70.7774H70.7891H70.8008H70.8125H70.8242H70.8358H70.8475H70.8592H70.8709H70.8826H70.8943H70.9059H70.9176H70.9293H70.941H70.9527H70.9644H70.9763H70.988H70.9996H71.0113H71.0232H71.0349H71.0466H71.0585H71.0702H71.0819H71.0938H71.1055H71.1174H71.1291H71.141H71.1526H71.1646H71.1762H71.1881H71.2001H71.2117H71.2236H71.2356H71.2472H71.2591H71.2711H71.2827H71.2946H71.3066H71.3185H71.3301H71.3421H71.354H71.3659H71.3778H71.3897H71.4016H71.4133H71.4252H71.4371H71.449H71.4609H71.4728H71.4847H71.4966H71.5085H71.5205H71.5324H71.5443H71.5562H71.5681H71.58H71.5919H71.6038H71.6159H71.6279H71.6398H71.6517H71.6636H71.6755H71.6874H71.6993H71.7114H71.7233H71.7353H71.7472H71.7591H71.7712H71.7831H71.795H71.8069H71.8188H71.831H71.8429H71.8548H71.8667H71.8786H71.8907H71.9026H71.9145H71.9265H71.9386H71.9505H71.9624H71.9743H71.9864H71.9984H72.0103H72.0222H72.0343H72.0462H72.0581H72.0703H72.0822H72.0941H72.106H72.1181H72.13H72.1419H72.1538H72.166H72.1779H72.1898H72.2017H72.2136H72.2257H72.2376H72.2496H72.2615H72.2736H72.2855H72.2974H72.3093H72.3212H72.3334C74.7691 75.884 77.1005 74.9178 78.7937 73.2063L82.303 69.6597L82.3248 69.6377C83.506 68.4767 83.5006 66.5999 82.3127 65.4453ZM82.3127 65.4453L83.8726 63.9121" stroke="white" stroke-width="4.51389" stroke-linecap="round" stroke-linejoin="round"/>
<path d="M114.637 51.7244C114.637 55.3628 111.619 58.3121 107.897 58.3121C104.174 58.3121 101.156 55.3628 101.156 51.7244C101.156 48.0863 104.174 45.1367 107.897 45.1367C111.619 45.1367 114.637 48.0862 114.637 51.7244Z" stroke="white" stroke-width="4.51389"/>
<path d="M106.162 69.1882L106.823 69.8474H107.767H111.675C113.377 69.8474 114.756 71.1954 114.756 72.8584C114.756 74.52 113.379 75.867 111.68 75.8692C109.189 75.8723 106.55 75.8751 105.526 75.8753C105.524 75.8751 105.522 75.8751 105.52 75.8749C105.457 75.8688 105.368 75.8622 105.261 75.8622H105.231L105.202 75.863C104.881 75.8712 104.561 75.8141 104.263 75.6955C103.964 75.5765 103.695 75.3988 103.471 75.1735L103.45 75.1522L102.01 73.7427L100.392 72.1592L98.8024 73.7697C98.1463 74.4344 97.3599 74.9636 96.4904 75.3253C95.6211 75.6869 94.6864 75.874 93.7414 75.8753H89.7223L89.0127 62.0117H96.1352C97.9466 62.0117 99.6818 62.7243 100.95 63.9889L106.162 69.1882Z" stroke="white" stroke-width="4.51389"/>
<path d="M86.0966 133.219H88.3435V135.414H86.0966V133.219ZM86.0966 122.239V120.043H88.3435V122.239H86.0966ZM61.3815 133.219V135.414H59.1347V133.219H61.3815ZM61.3815 122.239H59.1347V120.043H61.3815V122.239ZM62.4413 122.239L64.2803 120.978L66.7629 124.435H62.4413V122.239ZM66.3742 108.388L68.3779 107.394L64.565 109.69L66.3742 108.388ZM61.6819 99.3493L63.6431 98.2779L63.6652 98.3164L63.6856 98.3559L61.6819 99.3493ZM69.5346 97.6833L71.1597 96.1666L71.228 96.2366L71.2898 96.3122L69.5346 97.6833ZM77.7467 107.724L79.5017 106.353L79.5269 106.383L79.5507 106.415L77.7467 107.724ZM81.4895 122.239V124.435H79.4999L79.2593 122.505L81.4895 122.239ZM83.8498 133.219V122.239H88.3435V133.219H83.8498ZM61.3815 131.023H86.0966V135.414H61.3815V131.023ZM63.6283 122.239V133.219H59.1347V122.239H63.6283ZM62.4413 124.435H61.3815V120.043H62.4413V124.435ZM60.6021 123.501C59.3535 121.762 58.0214 120.387 56.5579 118.882L59.815 115.857C61.2604 117.343 62.8145 118.936 64.2803 120.978L60.6021 123.501ZM56.5579 118.882C54.6426 116.913 52.5448 114.764 50.6174 111.563L54.4903 109.335C56.1302 112.059 57.9009 113.888 59.815 115.857L56.5579 118.882ZM50.6174 111.563C50.1851 110.845 49.7442 110.151 49.3012 109.454L53.118 107.136C53.5571 107.827 54.0262 108.564 54.4903 109.335L50.6174 111.563ZM49.3012 109.454C47.7938 107.083 46.0415 104.41 45.7099 101.546L50.1751 101.052C50.3692 102.729 51.44 104.497 53.118 107.136L49.3012 109.454ZM45.7099 101.546C45.5248 99.9464 45.3917 94.7439 45.4129 89.728C45.4236 87.1913 45.474 84.6429 45.5816 82.55C45.6354 81.5052 45.7044 80.5513 45.7933 79.7586C45.8756 79.024 45.9924 78.246 46.1975 77.6626L50.4474 79.0893C50.4488 79.0853 50.4403 79.1095 50.4253 79.1714C50.4107 79.2313 50.3936 79.3122 50.3747 79.4167C50.3367 79.6273 50.298 79.9 50.2602 80.2366C50.1848 80.9101 50.1211 81.7694 50.0696 82.7705C49.9669 84.7692 49.9171 87.2433 49.9065 89.746C49.8851 94.8089 50.0246 99.7516 50.1751 101.052L45.7099 101.546ZM46.1975 77.6626C47.0185 75.3266 49.5547 73.8184 52.0828 73.8766C54.9444 73.9425 57.4378 75.8848 58.5746 79.5179L54.2774 80.8023C53.571 78.5445 52.4752 78.2788 51.977 78.2673C51.1454 78.248 50.5514 78.7935 50.4474 79.0893L46.1975 77.6626ZM58.5746 79.5179C59.5723 82.707 59.8689 86.715 60.1237 90.0319L55.6427 90.3608C55.3765 86.8961 55.0986 83.4268 54.2774 80.8023L58.5746 79.5179ZM60.1237 90.0319C60.259 91.7934 60.3807 93.3655 60.569 94.6791C60.7672 96.0627 61.0011 96.8381 61.1988 97.178L57.292 99.348C56.6342 98.2169 56.3209 96.6995 56.1187 95.288C55.9065 93.8062 55.7748 92.0805 55.6427 90.3608L60.1237 90.0319ZM61.1988 97.178C61.978 98.518 63.6919 100.958 65.2768 103.146C66.0558 104.221 66.7833 105.207 67.3163 105.925C67.5825 106.283 67.8 106.574 67.9506 106.775C68.0258 106.876 68.0845 106.954 68.124 107.007C68.1438 107.033 68.1588 107.053 68.1689 107.066C68.1739 107.073 68.1777 107.078 68.1802 107.081C68.1813 107.083 68.1822 107.084 68.1829 107.085C68.1829 107.085 68.1831 107.085 68.1829 107.085C68.1829 107.085 68.1835 107.086 66.3742 108.388C64.565 109.69 64.5653 109.69 64.565 109.69C64.5648 109.69 64.5641 109.689 64.5637 109.688C64.563 109.687 64.5619 109.686 64.5605 109.684C64.5578 109.68 64.5538 109.675 64.5484 109.668C64.5378 109.654 64.5221 109.633 64.5017 109.606C64.4605 109.551 64.4008 109.471 64.3239 109.369C64.1703 109.164 63.9496 108.868 63.6795 108.504C63.1396 107.777 62.4016 106.777 61.6095 105.684C60.052 103.535 58.2016 100.912 57.292 99.348L61.1988 97.178ZM64.3707 109.382L59.6782 100.343L63.6856 98.3559L68.3779 107.394L64.3707 109.382ZM61.6819 99.3493C59.7206 100.421 59.7202 100.42 59.7195 100.419C59.7195 100.419 59.7188 100.418 59.7184 100.417C59.7177 100.416 59.717 100.414 59.7161 100.413C59.7146 100.41 59.713 100.407 59.7114 100.404C59.708 100.399 59.7047 100.392 59.7011 100.386C59.6939 100.373 59.6865 100.359 59.6782 100.343C59.6615 100.311 59.642 100.274 59.6215 100.231C59.5802 100.146 59.5319 100.039 59.4809 99.9102C59.3787 99.6524 59.2654 99.3085 59.1729 98.8812C58.9868 98.0212 58.8908 96.8469 59.1221 95.387L63.5627 96.0592C63.4178 96.9742 63.4915 97.613 63.5692 97.9725C63.6088 98.155 63.6508 98.2722 63.671 98.3234C63.6811 98.3491 63.6861 98.3583 63.6825 98.3509C63.6804 98.3471 63.6766 98.3392 63.6703 98.3269C63.667 98.321 63.6631 98.3137 63.6587 98.3056C63.6564 98.3017 63.6539 98.2973 63.6515 98.2927C63.6501 98.2902 63.6488 98.2878 63.6474 98.2854C63.6467 98.2843 63.6461 98.283 63.6454 98.2817C63.6449 98.281 63.6456 98.2819 63.6454 98.2817C63.6447 98.2806 63.6431 98.278 61.6819 99.3493ZM59.1221 95.387C59.3912 93.6879 60.4551 91.8029 61.763 90.67C62.4022 90.1162 63.4546 89.4368 64.7751 89.5016C66.3131 89.5771 67.3374 90.5872 67.8953 91.6942L63.864 93.6347C63.804 93.5157 63.8058 93.5723 63.9337 93.6701C64.0842 93.7851 64.3051 93.8758 64.5497 93.8879C64.9537 93.9077 65.0254 93.7127 64.7436 93.9566C64.5169 94.1529 64.237 94.4933 63.993 94.9279C63.7487 95.3631 63.6081 95.7729 63.5627 96.0592L59.1221 95.387ZM67.8953 91.6942C68.4617 92.8181 69.2685 93.9358 69.9691 94.8023C70.3131 95.2281 70.6182 95.577 70.835 95.817C70.9431 95.9367 71.0285 96.0285 71.0849 96.0882C71.113 96.1181 71.1339 96.1398 71.1467 96.1532C71.153 96.1598 71.1575 96.1642 71.1597 96.1666C71.1608 96.1677 71.1613 96.1683 71.1613 96.1683C71.161 96.1681 71.1597 96.1666 69.5346 97.6833C67.9097 99.1998 67.9094 99.1996 67.9092 99.1994C67.9092 99.1991 67.9094 99.1996 67.9092 99.1994C67.909 99.1991 67.9081 99.198 67.9076 99.1976C67.9067 99.1967 67.9058 99.1958 67.9047 99.1947C67.9025 99.1923 67.8998 99.1895 67.8964 99.186C67.8897 99.1792 67.8809 99.1699 67.8699 99.1585C67.8479 99.1357 67.8175 99.1038 67.7796 99.0634C67.7034 98.9828 67.5969 98.868 67.4661 98.7235C67.2055 98.4347 66.8462 98.0239 66.4429 97.5248C65.6484 96.5419 64.6279 95.1501 63.864 93.6347L67.8953 91.6942ZM71.2898 96.3122L79.5017 106.353L75.9917 109.095L67.7796 99.0542L71.2898 96.3122ZM77.7467 107.724C79.5507 106.415 79.5505 106.415 79.5507 106.415C79.5509 106.415 79.5523 106.417 79.5525 106.417C79.5534 106.418 79.5543 106.419 79.5554 106.421C79.5575 106.424 79.5604 106.428 79.5638 106.432C79.5707 106.441 79.5801 106.454 79.5918 106.47C79.6152 106.501 79.648 106.545 79.6889 106.601C79.7705 106.712 79.8848 106.871 80.0212 107.066C80.2924 107.454 80.6575 107.996 81.0285 108.61C81.3958 109.218 81.7901 109.931 82.104 110.654C82.4002 111.337 82.7075 112.213 82.7412 113.097L78.2507 113.26C78.2476 113.178 78.193 112.889 77.9669 112.368C77.7582 111.888 77.4699 111.357 77.1592 110.843C76.852 110.335 76.5438 109.876 76.311 109.543C76.1953 109.378 76.0998 109.246 76.0349 109.157C76.0025 109.113 75.9778 109.08 75.9619 109.058C75.954 109.048 75.9484 109.04 75.945 109.036C75.9434 109.034 75.9425 109.033 75.9421 109.032C75.9421 109.032 75.9421 109.032 75.9421 109.032C75.9421 109.032 75.9428 109.033 77.7467 107.724ZM82.7412 113.097C82.7889 114.352 83.3697 119.165 83.7199 121.973L79.2593 122.505C78.9252 119.826 78.3073 114.754 78.2507 113.26L82.7412 113.097ZM86.0966 124.435H81.4895V120.043H86.0966V124.435Z" fill="white"/>
<path d="M95.0028 133.219H92.7559V135.414H95.0028V133.219ZM95.0028 122.239V120.043H92.7559V122.239H95.0028ZM119.718 133.219V135.414H121.965V133.219H119.718ZM119.718 122.239H121.965V120.043H119.718V122.239ZM118.658 122.239L116.819 120.978L114.337 124.435H118.658V122.239ZM114.725 108.388L112.721 107.394L116.534 109.69L114.725 108.388ZM119.418 99.3493L117.456 98.2779L117.434 98.3164L117.414 98.3559L119.418 99.3493ZM111.565 97.6833L109.94 96.1666L109.871 96.2366L109.81 96.3122L111.565 97.6833ZM103.353 107.724L101.598 106.353L101.572 106.383L101.549 106.415L103.353 107.724ZM99.6099 122.239V124.435H101.599L101.84 122.505L99.6099 122.239ZM97.2496 133.219V122.239H92.7559V133.219H97.2496ZM119.718 131.023H95.0028V135.414H119.718V131.023ZM117.471 122.239V133.219H121.965V122.239H117.471ZM118.658 124.435H119.718V120.043H118.658V124.435ZM120.497 123.501C121.746 121.762 123.078 120.387 124.542 118.882L121.284 115.857C119.839 117.343 118.285 118.936 116.819 120.978L120.497 123.501ZM124.542 118.882C126.457 116.913 128.555 114.764 130.482 111.563L126.609 109.335C124.969 112.059 123.198 113.888 121.284 115.857L124.542 118.882ZM130.482 111.563C130.914 110.845 131.355 110.151 131.798 109.454L127.981 107.136C127.542 107.827 127.073 108.564 126.609 109.335L130.482 111.563ZM131.798 109.454C133.306 107.083 135.058 104.41 135.39 101.546L130.924 101.052C130.73 102.729 129.659 104.497 127.981 107.136L131.798 109.454ZM135.39 101.546C135.575 99.9464 135.708 94.7439 135.686 89.728C135.676 87.1913 135.625 84.6429 135.518 82.55C135.464 81.5052 135.395 80.5513 135.306 79.7586C135.224 79.024 135.107 78.246 134.902 77.6626L130.652 79.0893C130.651 79.0853 130.659 79.1095 130.674 79.1714C130.689 79.2313 130.706 79.3122 130.725 79.4167C130.763 79.6273 130.802 79.9 130.839 80.2366C130.915 80.9101 130.978 81.7694 131.03 82.7705C131.132 84.7692 131.182 87.2433 131.193 89.746C131.214 94.8089 131.075 99.7516 130.924 101.052L135.39 101.546ZM134.902 77.6626C134.081 75.3266 131.545 73.8184 129.017 73.8766C126.155 73.9425 123.662 75.8848 122.525 79.5179L126.822 80.8023C127.528 78.5445 128.624 78.2788 129.122 78.2673C129.954 78.248 130.548 78.7935 130.652 79.0893L134.902 77.6626ZM122.525 79.5179C121.527 82.707 121.23 86.715 120.976 90.0319L125.457 90.3608C125.723 86.8961 126.001 83.4268 126.822 80.8023L122.525 79.5179ZM120.976 90.0319C120.84 91.7934 120.719 93.3655 120.53 94.6791C120.332 96.0627 120.098 96.8381 119.901 97.178L123.807 99.348C124.465 98.2169 124.778 96.6995 124.981 95.288C125.193 93.8062 125.325 92.0805 125.457 90.3608L120.976 90.0319ZM119.901 97.178C119.121 98.518 117.407 100.958 115.823 103.146C115.044 104.221 114.316 105.207 113.783 105.925C113.517 106.283 113.299 106.574 113.149 106.775C113.074 106.876 113.015 106.954 112.975 107.007C112.956 107.033 112.941 107.053 112.93 107.066C112.926 107.073 112.922 107.078 112.919 107.081C112.918 107.083 112.917 107.084 112.917 107.085C112.916 107.085 112.917 107.085 112.917 107.085C112.917 107.085 112.916 107.086 114.725 108.388C116.534 109.69 116.534 109.69 116.534 109.69C116.535 109.69 116.535 109.689 116.536 109.688C116.536 109.687 116.538 109.686 116.539 109.684C116.542 109.68 116.546 109.675 116.551 109.668C116.562 109.654 116.577 109.633 116.598 109.606C116.639 109.551 116.699 109.471 116.775 109.369C116.929 109.164 117.15 108.868 117.42 108.504C117.96 107.777 118.698 106.777 119.49 105.684C121.047 103.535 122.898 100.912 123.807 99.348L119.901 97.178ZM116.729 109.382L121.421 100.343L117.414 98.3559L112.721 107.394L116.729 109.382ZM119.418 99.3493C121.379 100.421 121.379 100.42 121.38 100.419C121.38 100.419 121.381 100.418 121.381 100.417C121.382 100.416 121.382 100.414 121.383 100.413C121.385 100.41 121.386 100.407 121.388 100.404C121.391 100.399 121.395 100.392 121.398 100.386C121.406 100.373 121.413 100.359 121.421 100.343C121.438 100.311 121.457 100.274 121.478 100.231C121.519 100.146 121.567 100.039 121.619 99.9102C121.721 99.6524 121.834 99.3085 121.927 98.8812C122.113 98.0212 122.209 96.8469 121.977 95.387L117.537 96.0592C117.682 96.9742 117.608 97.613 117.53 97.9725C117.491 98.155 117.449 98.2722 117.428 98.3234C117.418 98.3491 117.413 98.3583 117.417 98.3509C117.419 98.3471 117.423 98.3392 117.429 98.3269C117.432 98.321 117.436 98.3137 117.441 98.3056C117.443 98.3017 117.445 98.2973 117.448 98.2927C117.449 98.2902 117.451 98.2878 117.452 98.2854C117.453 98.2843 117.453 98.283 117.454 98.2817C117.454 98.2819 117.454 98.281 117.454 98.2817C117.455 98.2806 117.456 98.278 119.418 99.3493ZM121.977 95.387C121.708 93.6879 120.644 91.8029 119.336 90.67C118.697 90.1162 117.645 89.4368 116.324 89.5016C114.786 89.5771 113.762 90.5872 113.204 91.6942L117.235 93.6347C117.295 93.5157 117.294 93.5723 117.166 93.6701C117.015 93.7851 116.794 93.8758 116.55 93.8879C116.146 93.9077 116.074 93.7127 116.356 93.9566C116.582 94.1529 116.862 94.4933 117.106 94.9279C117.351 95.3631 117.491 95.7729 117.537 96.0592L121.977 95.387ZM113.204 91.6942C112.638 92.8181 111.831 93.9358 111.13 94.8023C110.786 95.2281 110.481 95.577 110.264 95.817C110.156 95.9367 110.071 96.0285 110.015 96.0882C109.986 96.1181 109.966 96.1398 109.953 96.1532C109.946 96.1598 109.942 96.1642 109.94 96.1666C109.94 96.1664 109.94 96.1666 111.565 97.6833C113.19 99.1998 113.19 99.1996 113.19 99.1994C113.19 99.1996 113.19 99.1991 113.19 99.1994L113.192 99.1976L113.195 99.1947C113.197 99.1923 113.2 99.1895 113.203 99.186C113.21 99.1792 113.218 99.1699 113.23 99.1585C113.252 99.1357 113.282 99.1038 113.32 99.0634C113.396 98.9828 113.502 98.868 113.633 98.7235C113.894 98.4347 114.253 98.0239 114.656 97.5248C115.451 96.5419 116.471 95.1501 117.235 93.6347L113.204 91.6942ZM109.81 96.3122L101.598 106.353L105.108 109.095L113.32 99.0542L109.81 96.3122ZM103.353 107.724C101.549 106.415 101.549 106.415 101.549 106.415C101.548 106.415 101.547 106.417 101.547 106.417C101.546 106.418 101.545 106.419 101.544 106.421C101.542 106.424 101.539 106.428 101.536 106.432C101.529 106.441 101.519 106.454 101.508 106.47C101.484 106.501 101.451 106.545 101.41 106.601C101.329 106.712 101.215 106.871 101.078 107.066C100.807 107.454 100.442 107.996 100.071 108.61C99.7036 109.218 99.3093 109.931 98.9954 110.654C98.6992 111.337 98.3919 112.213 98.3582 113.097L102.849 113.26C102.852 113.178 102.906 112.889 103.132 112.368C103.341 111.888 103.629 111.357 103.94 110.843C104.247 110.335 104.556 109.876 104.788 109.543C104.904 109.378 105 109.246 105.065 109.157C105.097 109.113 105.122 109.08 105.138 109.058C105.145 109.048 105.151 109.04 105.154 109.036C105.156 109.034 105.157 109.033 105.157 109.032C105.157 109.032 105.157 109.033 103.353 107.724ZM98.3582 113.097C98.3105 114.352 97.7297 119.165 97.3795 121.973L101.84 122.505C102.174 119.826 102.792 114.754 102.849 113.26L98.3582 113.097ZM95.0028 124.435H99.6099V120.043H95.0028V124.435Z" fill="white"/>
</g>
<defs>
<filter id="filter0_i_920_3682" x="0.722221" y="0" width="184.167" height="184.167" filterUnits="userSpaceOnUse" color-interpolation-filters="sRGB">
<feFlood flood-opacity="0" result="BackgroundImageFix"/>
<feBlend mode="normal" in="SourceGraphic" in2="BackgroundImageFix" result="shape"/>
<feColorMatrix in="SourceAlpha" type="matrix" values="0 0 0 0 0 0 0 0 0 0 0 0 0 0 0 0 0 0 127 0" result="hardAlpha"/>
<feMorphology radius="3.61111" operator="erode" in="SourceAlpha" result="effect1_innerShadow_920_3682"/>
<feOffset dx="3.61111" dy="3.61111"/>
<feGaussianBlur stdDeviation="1.80556"/>
<feComposite in2="hardAlpha" operator="arithmetic" k2="-1" k3="1"/>
<feColorMatrix type="matrix" values="0 0 0 0 0 0 0 0 0 0 0 0 0 0 0 0 0 0 0.25 0"/>
<feBlend mode="normal" in2="shape" result="effect1_innerShadow_920_3682"/>
</filter>
</defs>
</svg>
