<svg width="62" height="62" viewBox="0 0 62 62" fill="none" xmlns="http://www.w3.org/2000/svg">
<path d="M23.405 4.98595C18.5225 4.96011 13.7691 9.66178 15.9391 15.5001H7.74998C6.37969 15.5001 5.06553 16.0445 4.09659 17.0134C3.12766 17.9823 2.58331 19.2965 2.58331 20.6668V25.8334C2.58331 26.5186 2.85548 27.1757 3.33995 27.6601C3.82442 28.1446 4.4815 28.4168 5.16665 28.4168H28.4166V20.6668H33.5833V28.4168H56.8333C57.5185 28.4168 58.1755 28.1446 58.66 27.6601C59.1445 27.1757 59.4166 26.5186 59.4166 25.8334V20.6668C59.4166 19.2965 58.8723 17.9823 57.9034 17.0134C56.9344 16.0445 55.6203 15.5001 54.25 15.5001H46.0608C49.0833 7.05261 37.7166 1.08511 32.4725 8.37011L31 10.3334L29.5275 8.31845C27.9 6.01928 25.6525 5.01178 23.405 4.98595ZM23.25 10.3334C25.5491 10.3334 26.7116 13.1234 25.0841 14.7509C23.4566 16.3784 20.6666 15.2159 20.6666 12.9168C20.6666 12.2316 20.9388 11.5746 21.4233 11.0901C21.9078 10.6056 22.5648 10.3334 23.25 10.3334ZM38.75 10.3334C41.0491 10.3334 42.2116 13.1234 40.5841 14.7509C38.9566 16.3784 36.1666 15.2159 36.1666 12.9168C36.1666 12.2316 36.4388 11.5746 36.9233 11.0901C37.4078 10.6056 38.0648 10.3334 38.75 10.3334ZM5.16665 31.0001V51.6668C5.16665 53.0371 5.71099 54.3512 6.67993 55.3202C7.64887 56.2891 8.96303 56.8334 10.3333 56.8334H51.6666C53.0369 56.8334 54.3511 56.2891 55.32 55.3202C56.289 54.3512 56.8333 53.0371 56.8333 51.6668V31.0001H33.5833V51.6668H28.4166V31.0001H5.16665Z" fill="#8676B4"/>
</svg>
