<svg width="182" height="181" viewBox="0 0 182 181" fill="none" xmlns="http://www.w3.org/2000/svg">
<g filter="url(#filter0_i_2180_605)">
<circle cx="91" cy="90.2778" r="90.2778" fill="#675893"/>
</g>
<path fill-rule="evenodd" clip-rule="evenodd" d="M106.934 46.4494C106.934 45.5588 107.848 44.9724 108.64 45.3557L117.672 49.7241L108.64 54.0927C107.848 54.4754 106.934 53.8896 106.934 52.9986V46.4494ZM117.672 49.7241L126.704 45.3557C127.496 44.9724 128.41 45.5588 128.41 46.4494V52.9986C128.41 53.8896 127.496 54.4754 126.704 54.0927L117.672 49.7241ZM117.672 60.9434C113.966 60.9434 110.961 64.2922 110.961 68.423C110.961 72.5538 113.966 75.9025 117.672 75.9025C121.379 75.9025 124.384 72.5538 124.384 68.423C124.384 64.2922 121.379 60.9434 117.672 60.9434ZM105.592 68.423C105.592 60.9874 111 54.9598 117.672 54.9598C124.344 54.9598 129.753 60.9874 129.753 68.423C129.753 73.6332 127.097 78.1521 123.212 80.3903H124.384C126.628 80.3903 128.723 81.6403 129.968 83.7211L140.706 101.672C142.762 105.109 141.928 109.753 138.844 112.044C137.265 113.218 135.401 113.547 133.683 113.127L136.181 118.694L138.123 123.024H133.779H131.095V129.755C131.095 133.886 128.09 137.235 124.384 137.235C120.677 137.235 117.672 133.886 117.672 129.755C117.672 133.886 114.668 137.235 110.961 137.235C107.254 137.235 104.25 133.886 104.25 129.755V123.024H101.565H97.2213L99.1638 118.694L101.662 113.127C99.9431 113.547 98.0795 113.218 96.4999 112.044C93.416 109.753 92.5827 105.109 94.6385 101.672L105.377 83.7211C106.621 81.6403 108.717 80.3903 110.961 80.3903H112.133C108.247 78.1521 105.592 73.6332 105.592 68.423ZM105.909 117.04H106.934H109.619V120.032V129.755C109.619 130.581 110.22 131.251 110.961 131.251C111.702 131.251 112.303 130.581 112.303 129.755V120.032V117.04H114.988H120.357H123.041V120.032V129.755C123.041 130.581 123.642 131.251 124.384 131.251C125.125 131.251 125.726 130.581 125.726 129.755V120.032V117.04H128.41H129.436L126.009 109.403L125.726 108.771V108.065V102.692V92.8105L130.644 101.032L134.005 106.65C134.416 107.338 135.25 107.524 135.866 107.065C136.483 106.607 136.65 105.678 136.239 104.991L125.5 87.0399C125.252 86.6241 124.832 86.3739 124.384 86.3739H110.961C110.512 86.3739 110.093 86.6241 109.844 87.0399L99.1058 104.991C98.6948 105.678 98.8615 106.607 99.4782 107.065C100.095 107.524 100.928 107.338 101.34 106.65L104.7 101.032L109.619 92.8105V102.692V108.065V108.771L109.335 109.403L105.909 117.04ZM58.6123 68.5076C58.6123 64.3768 61.6171 61.0281 65.3237 61.0281C69.0302 61.0281 72.035 64.3768 72.035 68.5076C72.035 72.6385 69.0302 75.9872 65.3237 75.9872C61.6171 75.9872 58.6123 72.6385 58.6123 68.5076ZM65.3237 55.0444C58.6518 55.0444 53.2433 61.0721 53.2433 68.5076C53.2433 73.7179 55.8988 78.2368 59.7839 80.4749H57.2701C55.0261 80.4749 52.9306 81.7249 51.6858 83.8057L40.9477 101.757C38.8917 105.194 39.725 109.838 42.8091 112.129C45.2409 113.936 48.3461 113.74 50.5587 111.892V129.84C50.5587 133.971 53.5636 137.32 57.2701 137.32C60.9766 137.32 63.9814 133.971 63.9814 129.84V117.873H66.6659V129.84C66.6659 133.971 69.6707 137.32 73.3773 137.32C77.0838 137.32 80.0886 133.971 80.0886 129.84V111.892C82.3012 113.74 85.4061 113.936 87.838 112.129C90.922 109.838 91.7556 105.194 89.6995 101.757L78.9614 83.8057C77.7165 81.7249 75.621 80.4749 73.3773 80.4749H70.8635C74.7483 78.2368 77.4041 73.7179 77.4041 68.5076C77.4041 61.0721 71.9953 55.0444 65.3237 55.0444ZM56.153 87.1249C56.4022 86.7087 56.8212 86.4586 57.2701 86.4586H73.3773C73.8259 86.4586 74.2452 86.7087 74.494 87.1249L85.2322 105.076C85.6434 105.763 85.4767 106.692 84.8598 107.15C84.2432 107.608 83.4096 107.423 82.9984 106.735L79.6376 101.117L74.7195 92.8952V102.777V129.84C74.7195 130.666 74.1185 131.336 73.3773 131.336C72.6358 131.336 72.035 130.666 72.035 129.84V114.881V111.889H69.3505H61.2969H58.6123V114.881V129.84C58.6123 130.666 58.0113 131.336 57.2701 131.336C56.5286 131.336 55.9278 130.666 55.9278 129.84V102.777V92.8952L51.0095 101.117L47.6487 106.735C47.2375 107.423 46.4041 107.608 45.7873 107.15C45.1705 106.692 45.0038 105.763 45.415 105.076L56.153 87.1249Z" fill="white"/>
<defs>
<filter id="filter0_i_2180_605" x="0.722229" y="0" width="184.167" height="184.167" filterUnits="userSpaceOnUse" color-interpolation-filters="sRGB">
<feFlood flood-opacity="0" result="BackgroundImageFix"/>
<feBlend mode="normal" in="SourceGraphic" in2="BackgroundImageFix" result="shape"/>
<feColorMatrix in="SourceAlpha" type="matrix" values="0 0 0 0 0 0 0 0 0 0 0 0 0 0 0 0 0 0 127 0" result="hardAlpha"/>
<feMorphology radius="3.61111" operator="erode" in="SourceAlpha" result="effect1_innerShadow_2180_605"/>
<feOffset dx="3.61111" dy="3.61111"/>
<feGaussianBlur stdDeviation="1.80556"/>
<feComposite in2="hardAlpha" operator="arithmetic" k2="-1" k3="1"/>
<feColorMatrix type="matrix" values="0 0 0 0 0 0 0 0 0 0 0 0 0 0 0 0 0 0 0.25 0"/>
<feBlend mode="normal" in2="shape" result="effect1_innerShadow_2180_605"/>
</filter>
</defs>
</svg>
