<svg width="70" height="70" viewBox="0 0 70 70" fill="none" xmlns="http://www.w3.org/2000/svg">
<path d="M63.4375 15.3125H52.5V11.4844C52.5 11.1836 52.2539 10.9375 51.9531 10.9375H48.125C47.8242 10.9375 47.5781 11.1836 47.5781 11.4844V15.3125H37.4609V11.4844C37.4609 11.1836 37.2148 10.9375 36.9141 10.9375H33.0859C32.7852 10.9375 32.5391 11.1836 32.5391 11.4844V15.3125H22.4219V11.4844C22.4219 11.1836 22.1758 10.9375 21.875 10.9375H18.0469C17.7461 10.9375 17.5 11.1836 17.5 11.4844V15.3125H6.5625C5.35254 15.3125 4.375 16.29 4.375 17.5V56.875C4.375 58.085 5.35254 59.0625 6.5625 59.0625H63.4375C64.6475 59.0625 65.625 58.085 65.625 56.875V17.5C65.625 16.29 64.6475 15.3125 63.4375 15.3125ZM28.9844 47.0312C28.9844 47.332 28.7383 47.5781 28.4375 47.5781H15.8594C15.5586 47.5781 15.3125 47.332 15.3125 47.0312V43.75C15.3125 43.4492 15.5586 43.2031 15.8594 43.2031H28.4375C28.7383 43.2031 28.9844 43.4492 28.9844 43.75V47.0312ZM28.9844 37.7344C28.9844 38.0352 28.7383 38.2812 28.4375 38.2812H15.8594C15.5586 38.2812 15.3125 38.0352 15.3125 37.7344V34.4531C15.3125 34.1523 15.5586 33.9062 15.8594 33.9062H28.4375C28.7383 33.9062 28.9844 34.1523 28.9844 34.4531V37.7344ZM54.585 31.4932L43.3057 47.127C43.205 47.2667 43.0725 47.3805 42.9192 47.459C42.7659 47.5375 42.5961 47.5785 42.4238 47.5785C42.2516 47.5785 42.0818 47.5375 41.9285 47.459C41.7752 47.3805 41.6427 47.2667 41.542 47.127L33.7354 36.3125C33.4756 35.9502 33.7354 35.4443 34.1797 35.4443H37.9326C38.2812 35.4443 38.6094 35.6152 38.8145 35.8955L42.4238 40.8926L49.5127 31.0693C49.7178 30.7822 50.0459 30.6182 50.3945 30.6182H54.1406C54.585 30.625 54.8447 31.1309 54.585 31.4932Z" fill="#8676B4"/>
</svg>
